<?xml version="1.0" encoding="UTF-8"?>
<svg width="512px" height="512px" viewBox="0 0 512 512" version="1.1" xmlns="http://www.w3.org/2000/svg" xmlns:xlink="http://www.w3.org/1999/xlink">
    <title>Artboard</title>
    <g id="Artboard" stroke="none" stroke-width="1" fill="none" fill-rule="evenodd">
        <path d="M268.977687,7.18960607 L466.977687,121.221814 C474.415884,125.505622 479,133.435713 479,142.01929 L479,369.98071 C479,378.564287 474.415884,386.494378 466.977687,390.778186 L268.977687,504.810394 C261.563411,509.080426 252.436589,509.080426 245.022313,504.810394 L47.0223127,390.778186 C39.5841156,386.494378 35,378.564287 35,369.98071 L35,142.01929 C35,133.435713 39.5841156,125.505622 47.0223127,121.221814 L106.007346,87.2501044 C109.836027,85.0450226 114.727358,86.3612095 116.932439,90.18989 C117.631861,91.4042954 118,92.7811261 118,94.1825438 L118,264 L118,264 L118.25,263.999082 L118.25,322.035351 C118.25,330.475868 122.682585,338.2845 129.902789,342.615611 L130.272313,342.832826 L245.022313,408.919674 C252.306514,413.114793 261.243698,413.188392 268.585899,409.14047 L268.977687,408.919674 L383.727687,342.832826 C391.041914,338.620415 395.596403,330.882251 395.746188,322.463971 L395.75,322.035351 L395.75,189.964649 C395.75,181.524132 391.317415,173.7155 384.097211,169.384389 L383.727687,169.167174 L268.977687,103.080326 C261.693486,98.8852068 252.756302,98.8116082 245.414101,102.85953 L245.022313,103.080326 L176.996274,142.257722 C175.081918,143.360234 172.636262,142.702103 171.53375,140.787746 C171.184059,140.180556 171,139.49216 171,138.791472 L171,63.6937415 C171,55.1101237 175.584159,47.1800013 183.022412,42.8962081 L245.022313,7.18960607 L245.022313,7.18960607 C252.436589,2.919574 261.563411,2.919574 268.977687,7.18960607 Z" id="Path" fill="#FF6400"></path>
        <path d="M269.485792,163.2058 L332.014208,199.241591 C339.431042,203.515991 344,211.415409 344,219.964209 L344,292.035791 C344,300.584591 339.431042,308.484009 332.014208,312.758409 L269.485792,348.7942 C262.068958,353.0686 252.931042,353.0686 245.514208,348.7942 L182.985792,312.758409 C175.568958,308.484009 171,300.584591 171,292.035791 L171,219.964209 C171,211.415409 175.568958,203.515991 182.985792,199.241591 L245.514208,163.2058 C252.931042,158.9314 262.068958,158.9314 269.485792,163.2058 Z" id="Polygon-Copy-2" fill="#0086FF"></path>
    </g>
</svg>